<?xml version="1.0" encoding="UTF-8"?><svg id="Capa_1" xmlns="http://www.w3.org/2000/svg" viewBox="0 0 1080 1080"><path d="M93.84,594.48v-79.47h22.34v8.45h.29c4.15-8.45,10.74-11.17,19.9-11.17v23.91c-14.18.14-18.76,5.44-18.76,14.46v43.81h-23.77Z"/><path d="M160.42,561.98c1.29,9.02,8.88,15.03,18.61,15.03,6.44,0,10.6-2.43,14.46-7.45h24.34c-7.59,17.33-22.05,27.49-38.8,27.49-22.91,0-42.1-18.47-42.1-42.1s18.33-42.67,41.67-42.67,41.95,18.76,41.95,43.38c0,2.29-.14,4.15-.57,6.3h-59.57ZM196.79,545.94c-1.86-8.16-9.02-13.6-18.18-13.6-8.59,0-16.04,5.15-17.9,13.6h36.08Z"/><path d="M331.24,594.48v-8.59h-.29c-3.44,7.02-12.89,11.31-23.34,11.31-23.48,0-39.81-18.47-39.81-42.53s17.04-42.38,39.81-42.38c9.74,0,18.76,3.87,23.34,11.17h.29v-8.45h23.77v79.47h-23.77ZM331.24,554.68c0-11.17-9.02-20.19-20.19-20.19s-19.47,9.02-19.47,20.48,8.73,20.05,19.76,20.05,19.9-8.88,19.9-20.33Z"/><path d="M424.89,545.65c-3.44-7.44-9.59-11.17-17.75-11.17-10.88,0-18.33,9.02-18.33,20.19s7.88,20.19,18.9,20.19c8.02,0,13.6-3.72,17.18-10.6h24.2c-4.73,19.9-21.76,32.79-42.1,32.79-23.48,0-42.1-19.04-42.1-42.52s18.76-42.24,41.67-42.24c20.91,0,37.94,13.17,42.38,33.36h-24.06Z"/><path d="M506.22,594.48v-43.67c0-10.31-4.01-16.18-12.74-16.18s-13.32,5.3-13.32,15.18v44.67h-23.77v-105.96h23.77v34.08c3.44-6.44,11.17-10.31,20.62-10.31,18.18,0,29.21,11.45,29.21,32.22v49.97h-23.77Z"/><path d="M602.56,537.35c-.14-4.58-3.44-6.01-7.3-6.01s-6.87,2.29-6.87,5.3c0,4.3,3.87,6.44,14.89,9.31,18.9,5.01,25.06,12.6,25.06,24.2,0,16.61-14.32,27.06-32.36,27.06s-30.64-10.17-32.36-26.35h23.63c.72,5.01,4.3,7.3,9.02,7.3,4.15,0,8.3-2.43,8.3-6.16,0-4.44-2.72-6.73-14.6-10.45-20.05-6.16-25.34-14.03-25.34-23.34,0-15.75,14.75-25.92,30.78-25.92,17.18,0,29.35,9.45,30.5,25.06h-23.34Z"/><path d="M641.37,594.48v-61.43h-11.74v-18.04h11.74v-26.49h23.77v26.49h11.46v18.04h-11.46v61.43h-23.77Z"/><path d="M734.44,594.48v-8.45h-.29c-3.44,7.3-9.74,11.02-20.47,11.02-16.75,0-30.64-10.02-30.64-32.64v-49.4h23.77v44.53c0,10.45,3.72,15.32,12.74,15.32s13.6-6.01,13.6-15.75v-44.1h23.77v79.47h-22.48Z"/><path d="M830.66,594.48v-8.59h-.29c-4.44,7.3-12.46,11.17-23.77,11.17-24.05,0-39.81-18.47-39.81-42.52s16.18-42.24,39.38-42.24c9.16,0,16.61,2.72,23.34,9.45v-33.22h23.77v105.96h-22.62ZM830.8,554.39c0-11.02-8.45-19.9-20.19-19.9s-20.05,8.3-20.05,19.9,8.45,20.48,19.9,20.48,20.33-8.73,20.33-20.48Z"/><path d="M866.89,594.48v-79.47h23.77v79.47h-23.77Z"/><path d="M943.35,596.92c-24.2,0-42.81-17.9-42.81-42.24s19.04-42.24,42.81-42.24,42.81,17.9,42.81,41.95-18.9,42.53-42.81,42.53ZM962.39,554.68c0-10.59-8.02-20.05-19.19-20.05-10.45,0-18.9,9.16-18.9,20.05s8.3,20.05,19.04,20.05,19.04-9.45,19.04-20.05Z"/><circle cx="878.77" cy="494.68" r="11.88"/><circle cx="244.12" cy="527.19" r="11.88"/><circle cx="244.12" cy="582.31" r="11.88"/></svg>